<svg width="17" height="16" viewBox="0 0 17 16" fill="none" xmlns="http://www.w3.org/2000/svg">
<g clip-path="url(#clip0_226_1150)">
<path d="M15.8843 1.84613H1.11508C0.951869 1.84613 0.795344 1.91097 0.679937 2.02637C0.56453 2.14178 0.499695 2.2983 0.499695 2.46152V12.9231C0.499695 13.2495 0.629365 13.5625 0.860179 13.7933C1.09099 14.0242 1.40404 14.1538 1.73046 14.1538H15.2689C15.5953 14.1538 15.9084 14.0242 16.1392 13.7933C16.37 13.5625 16.4997 13.2495 16.4997 12.9231V2.46152C16.4997 2.2983 16.4349 2.14178 16.3195 2.02637C16.204 1.91097 16.0475 1.84613 15.8843 1.84613ZM15.2689 12.9231H1.73046V3.86151L8.08431 9.68459C8.19775 9.78838 8.34594 9.84593 8.49969 9.84593C8.65345 9.84593 8.80164 9.78838 8.91508 9.68459L15.2689 3.86151V12.9231Z" fill="white"/>
</g>
<defs>
<clipPath id="clip0_226_1150">
<rect width="16" height="16" fill="white" transform="translate(0.499695)"/>
</clipPath>
</defs>
</svg>
