<svg width="17" height="16" viewBox="0 0 17 16" fill="none" xmlns="http://www.w3.org/2000/svg">
<g clip-path="url(#clip0_226_1164)">
<path fill-rule="evenodd" clip-rule="evenodd" d="M8.50031 0C4.08031 0 0.500305 3.58 0.500305 8C0.500305 11.54 2.7903 14.53 5.9703 15.59C6.37031 15.66 6.52031 15.42 6.52031 15.21C6.52031 15.02 6.51031 14.39 6.51031 13.72C4.50031 14.09 3.98031 13.23 3.82031 12.78C3.73031 12.55 3.34031 11.84 3.00031 11.65C2.72031 11.5 2.32031 11.13 2.99031 11.12C3.62031 11.11 4.07031 11.7 4.22031 11.94C4.94031 13.15 6.09031 12.81 6.55031 12.6C6.62031 12.08 6.83031 11.73 7.06031 11.53C5.2803 11.33 3.42031 10.64 3.42031 7.58C3.42031 6.71 3.73031 5.99 4.24031 5.43C4.16031 5.23 3.88031 4.41 4.32031 3.31C4.32031 3.31 4.9903 3.1 6.52031 4.13C7.16031 3.95 7.84031 3.86 8.52031 3.86C9.20031 3.86 9.88031 3.95 10.5203 4.13C12.0503 3.09 12.7203 3.31 12.7203 3.31C13.1603 4.41 12.8803 5.23 12.8003 5.43C13.3103 5.99 13.6203 6.7 13.6203 7.58C13.6203 10.65 11.7503 11.33 9.97031 11.53C10.2603 11.78 10.5103 12.26 10.5103 13.01C10.5103 14.08 10.5003 14.94 10.5003 15.21C10.5003 15.42 10.6503 15.67 11.0503 15.59C14.2103 14.53 16.5003 11.53 16.5003 8C16.5003 3.58 12.9203 0 8.50031 0Z" fill="white"/>
</g>
<defs>
<clipPath id="clip0_226_1164">
<rect width="16" height="16" fill="white" transform="translate(0.500305)"/>
</clipPath>
</defs>
</svg>
