<svg width="17" height="16" viewBox="0 0 17 16" fill="none" xmlns="http://www.w3.org/2000/svg">
<g clip-path="url(#clip0_226_1160)">
<path d="M14.1327 13.6334H11.7621V9.91968C11.7621 9.03421 11.7461 7.89401 10.5289 7.89401C9.29415 7.89401 9.10509 8.85866 9.10509 9.85461V13.6331H6.73445V5.99817H9.01025V7.0417H9.04095C9.26875 6.65226 9.59791 6.3319 9.99338 6.11473C10.3888 5.89757 10.8358 5.79173 11.2867 5.8085C13.6895 5.8085 14.1327 7.38913 14.1327 9.44518V13.6334ZM4.05934 4.95434C3.7872 4.9544 3.52115 4.87376 3.29484 4.72261C3.06853 4.57146 2.89213 4.35659 2.78794 4.10518C2.68375 3.85376 2.65646 3.5771 2.70952 3.31018C2.76257 3.04326 2.89359 2.79807 3.08601 2.60561C3.27842 2.41315 3.52358 2.28208 3.79049 2.22896C4.0574 2.17585 4.33407 2.20308 4.58551 2.30721C4.83694 2.41134 5.05185 2.5877 5.20305 2.81397C5.35425 3.04025 5.43495 3.30628 5.43495 3.57842C5.43495 3.94328 5.29003 4.29321 5.03207 4.55123C4.7741 4.80926 4.42421 4.95426 4.05934 4.95434ZM5.24466 13.6331H2.87157V5.99817H5.24497L5.24466 13.6331ZM15.3135 0.00127981H1.68011C1.52674 -0.000584429 1.37451 0.0278206 1.23214 0.0848686C1.08976 0.141917 0.960037 0.226487 0.850392 0.333738C0.740746 0.440989 0.653332 0.568814 0.593154 0.709894C0.532977 0.850974 0.501217 1.00254 0.499695 1.15591V14.8445C0.503338 15.1541 0.629736 15.4496 0.851123 15.6661C1.07251 15.8826 1.37078 16.0024 1.68041 15.9991H15.3135C15.6239 16.0033 15.9233 15.884 16.1458 15.6675C16.3683 15.451 16.4957 15.1549 16.5 14.8445V1.15345C16.4956 0.843201 16.368 0.547419 16.1455 0.331174C15.923 0.114928 15.6237 -0.00314746 15.3135 0.00127981Z" fill="white"/>
</g>
<defs>
<clipPath id="clip0_226_1160">
<rect width="16.0006" height="16" fill="white" transform="translate(0.499695)"/>
</clipPath>
</defs>
</svg>
