<svg width="17" height="16" viewBox="0 0 17 16" xmlns="http://www.w3.org/2000/svg">
<g clip-path="url(#clip0_226_1168)">
<path d="M15.0926 4.48462L10.7849 0.176933C10.6677 0.0626422 10.5102 -0.000913128 10.3465 9.91546e-06H2.96185C2.63543 9.91546e-06 2.32238 0.12968 2.09156 0.360494C1.86075 0.591307 1.73108 0.904358 1.73108 1.23078V14.7692C1.73108 15.0957 1.86075 15.4087 2.09156 15.6395C2.32238 15.8703 2.63543 16 2.96185 16H14.0388C14.3652 16 14.6782 15.8703 14.909 15.6395C15.1399 15.4087 15.2695 15.0957 15.2695 14.7692V4.92308C15.2705 4.75936 15.2069 4.60186 15.0926 4.48462ZM7.09261 11.2538C7.20817 11.3705 7.273 11.5281 7.273 11.6923C7.273 11.8565 7.20817 12.0141 7.09261 12.1308C6.97499 12.2445 6.81777 12.3081 6.65415 12.3081C6.49053 12.3081 6.33332 12.2445 6.21569 12.1308L4.36954 10.2846C4.25398 10.1679 4.18915 10.0104 4.18915 9.84616C4.18915 9.68194 4.25398 9.52437 4.36954 9.4077L6.21569 7.56154C6.33526 7.46341 6.48705 7.41326 6.64154 7.42085C6.79604 7.42844 6.94219 7.49322 7.05156 7.6026C7.16094 7.71197 7.22572 7.85812 7.23331 8.01261C7.24089 8.16711 7.19074 8.3189 7.09261 8.43847L5.67723 9.84616L7.09261 11.2538ZM12.6311 10.2846L10.7849 12.1308C10.6673 12.2445 10.5101 12.3081 10.3465 12.3081C10.1828 12.3081 10.0256 12.2445 9.908 12.1308C9.79244 12.0141 9.72761 11.8565 9.72761 11.6923C9.72761 11.5281 9.79244 11.3705 9.908 11.2538L11.3234 9.84616L9.908 8.43847C9.80987 8.3189 9.75972 8.16711 9.7673 8.01261C9.77489 7.85812 9.83967 7.71197 9.94905 7.6026C10.0584 7.49322 10.2046 7.42844 10.3591 7.42085C10.5136 7.41326 10.6654 7.46341 10.7849 7.56154L12.6311 9.4077C12.7466 9.52437 12.8115 9.68194 12.8115 9.84616C12.8115 10.0104 12.7466 10.1679 12.6311 10.2846ZM10.3465 4.92308V1.53847L13.7311 4.92308H10.3465Z"/>
</g>
<defs>
<clipPath id="clip0_226_1168">
<rect width="16" height="16" transform="translate(0.500305)"/>
</clipPath>
</defs>
</svg>
