<svg width="240" height="240" viewBox="0 0 240 240" fill="none" xmlns="http://www.w3.org/2000/svg">
<g clip-path="url(#clip0_226_1437)">
<path d="M119.992 224.983C190 224.983 224.983 177.977 224.983 119.992C224.983 62.0064 190 15 119.992 15C49.9833 15 15 62.0064 15 119.992C15 177.977 49.9833 224.983 119.992 224.983Z" fill="url(#paint0_radial_226_1437)"/>
<path d="M119.992 224.983C190 224.983 224.983 177.977 224.983 119.992C224.983 62.0064 190 15 119.992 15C49.9833 15 15 62.0064 15 119.992C15 177.977 49.9833 224.983 119.992 224.983Z" fill="url(#paint1_radial_226_1437)"/>
<path d="M119.992 224.983C190 224.983 224.983 177.977 224.983 119.992C224.983 62.0064 190 15 119.992 15C49.9833 15 15 62.0064 15 119.992C15 177.977 49.9833 224.983 119.992 224.983Z" fill="url(#paint2_radial_226_1437)" fill-opacity="0.6"/>
<path d="M119.992 224.983C190 224.983 224.983 177.977 224.983 119.992C224.983 62.0064 190 15 119.992 15C49.9833 15 15 62.0064 15 119.992C15 177.977 49.9833 224.983 119.992 224.983Z" fill="url(#paint3_radial_226_1437)"/>
<path d="M119.992 224.983C190 224.983 224.983 177.977 224.983 119.992C224.983 62.0064 190 15 119.992 15C49.9833 15 15 62.0064 15 119.992C15 177.977 49.9833 224.983 119.992 224.983Z" fill="url(#paint4_radial_226_1437)"/>
<path d="M119.992 224.983C190 224.983 224.983 177.977 224.983 119.992C224.983 62.0064 190 15 119.992 15C49.9833 15 15 62.0064 15 119.992C15 177.977 49.9833 224.983 119.992 224.983Z" fill="url(#paint5_radial_226_1437)"/>
<path d="M119.992 224.983C190 224.983 224.983 177.977 224.983 119.992C224.983 62.0064 190 15 119.992 15C49.9833 15 15 62.0064 15 119.992C15 177.977 49.9833 224.983 119.992 224.983Z" fill="url(#paint6_radial_226_1437)"/>
<path d="M120 195C45 195 45 120 45 120H195C195 120 195 195 120 195Z" fill="url(#paint7_radial_226_1437)"/>
<path d="M52.5 129.25V120H187.5V129.25C187.5 130.355 186.605 131.25 185.5 131.25H54.5C53.3954 131.25 52.5 130.355 52.5 129.25Z" fill="url(#paint8_linear_226_1437)"/>
<g filter="url(#filter0_f_226_1437)">
<path d="M70.8557 107.456C67.1509 109.309 62.6459 107.807 60.7934 104.102C58.941 100.397 60.4427 95.8923 64.1475 94.0399L80.6963 85.7655H105.002C104.995 88.5995 103.391 91.1884 100.856 92.4563L70.8557 107.456Z" fill="url(#paint9_radial_226_1437)" fill-opacity="0.6" style="mix-blend-mode:multiply"/>
<path d="M70.8557 64.0747C67.1509 62.2223 62.6459 63.724 60.7934 67.4288C58.941 71.1336 60.4427 75.6387 64.1475 77.4911L80.6963 85.7655H105.002C104.995 82.9315 103.391 80.3425 100.856 79.0747L70.8557 64.0747Z" fill="url(#paint10_radial_226_1437)" fill-opacity="0.6" style="mix-blend-mode:multiply"/>
</g>
<path d="M70.8557 104.175C67.1509 106.027 62.6459 104.525 60.7934 100.82C58.941 97.1156 60.4427 92.6106 64.1475 90.7582L80.6963 82.4838H105.002C104.995 85.3178 103.391 87.9067 100.856 89.1746L70.8557 104.175Z" fill="url(#paint11_linear_226_1437)"/>
<path d="M70.8557 60.7934C67.1509 58.941 62.6459 60.4427 60.7934 64.1475C58.941 67.8524 60.4427 72.3574 64.1475 74.2098L80.6963 82.4842H105.002C104.995 79.6502 103.391 77.0613 100.856 75.7934L70.8557 60.7934Z" fill="url(#paint12_linear_226_1437)"/>
<g filter="url(#filter1_f_226_1437)">
<path d="M164.693 107.456C168.397 109.309 172.902 107.807 174.755 104.102C176.607 100.397 175.106 95.8923 171.401 94.0399L154.852 85.7655H130.547C130.553 88.5995 132.157 91.1884 134.693 92.4563L164.693 107.456Z" fill="url(#paint13_radial_226_1437)"/>
<path d="M164.693 64.0747C168.397 62.2223 172.902 63.724 174.755 67.4288C176.607 71.1336 175.106 75.6387 171.401 77.4911L154.852 85.7655H130.547C130.553 82.9315 132.157 80.3425 134.693 79.0747L164.693 64.0747Z" fill="url(#paint14_radial_226_1437)"/>
</g>
<path d="M169.028 104.175C172.733 106.027 177.238 104.525 179.091 100.82C180.943 97.1156 179.442 92.6106 175.737 90.7582L159.188 82.4838H134.883C134.889 85.3178 136.493 87.9067 139.028 89.1746L169.028 104.175Z" fill="url(#paint15_linear_226_1437)"/>
<path d="M169.028 60.7934C172.733 58.941 177.238 60.4427 179.091 64.1475C180.943 67.8524 179.442 72.3574 175.737 74.2098L159.188 82.4842H134.883C134.889 79.6502 136.493 77.0613 139.028 75.7934L169.028 60.7934Z" fill="url(#paint16_linear_226_1437)"/>
</g>
<defs>
<filter id="filter0_f_226_1437" x="59.5" y="62.7812" width="46.0016" height="45.9685" filterUnits="userSpaceOnUse" color-interpolation-filters="sRGB">
<feFlood flood-opacity="0" result="BackgroundImageFix"/>
<feBlend mode="normal" in="SourceGraphic" in2="BackgroundImageFix" result="shape"/>
<feGaussianBlur stdDeviation="0.25" result="effect1_foregroundBlur_226_1437"/>
</filter>
<filter id="filter1_f_226_1437" x="130.047" y="62.7812" width="46.0016" height="45.9685" filterUnits="userSpaceOnUse" color-interpolation-filters="sRGB">
<feFlood flood-opacity="0" result="BackgroundImageFix"/>
<feBlend mode="normal" in="SourceGraphic" in2="BackgroundImageFix" result="shape"/>
<feGaussianBlur stdDeviation="0.25" result="effect1_foregroundBlur_226_1437"/>
</filter>
<radialGradient id="paint0_radial_226_1437" cx="0" cy="0" r="1" gradientUnits="userSpaceOnUse" gradientTransform="translate(191.25 67.5) rotate(131.878) scale(292.115)">
<stop stop-color="#FFF478"/>
<stop offset="0.474827" stop-color="#FFB02E"/>
<stop offset="1" stop-color="#F70A8D"/>
</radialGradient>
<radialGradient id="paint1_radial_226_1437" cx="0" cy="0" r="1" gradientUnits="userSpaceOnUse" gradientTransform="translate(120 93.75) rotate(101.31) scale(133.849 171.435)">
<stop offset="0.787821" stop-color="#F59639" stop-opacity="0"/>
<stop offset="0.972509" stop-color="#FF7DCE"/>
</radialGradient>
<radialGradient id="paint2_radial_226_1437" cx="0" cy="0" r="1" gradientUnits="userSpaceOnUse" gradientTransform="translate(135 105) rotate(135) scale(307.591)">
<stop offset="0.314853" stop-opacity="0"/>
<stop offset="1"/>
</radialGradient>
<radialGradient id="paint3_radial_226_1437" cx="0" cy="0" r="1" gradientUnits="userSpaceOnUse" gradientTransform="translate(120 127.5) rotate(77.692) scale(211.102)">
<stop offset="0.507903" stop-color="#7D6133" stop-opacity="0"/>
<stop offset="1" stop-color="#715B32"/>
</radialGradient>
<radialGradient id="paint4_radial_226_1437" cx="0" cy="0" r="1" gradientUnits="userSpaceOnUse" gradientTransform="translate(123.75 123.75) rotate(55.7131) scale(99.8514 72.3774)">
<stop stop-color="#FFB849"/>
<stop offset="1" stop-color="#FFB847" stop-opacity="0"/>
</radialGradient>
<radialGradient id="paint5_radial_226_1437" cx="0" cy="0" r="1" gradientUnits="userSpaceOnUse" gradientTransform="translate(153.75 135) rotate(9.86581) scale(87.5446)">
<stop stop-color="#FFA64B"/>
<stop offset="0.900412" stop-color="#FFAE46" stop-opacity="0"/>
</radialGradient>
<radialGradient id="paint6_radial_226_1437" cx="0" cy="0" r="1" gradientUnits="userSpaceOnUse" gradientTransform="translate(131.25 112.5) rotate(43.9708) scale(442.897)">
<stop offset="0.185425" stop-opacity="0"/>
<stop offset="1" stop-opacity="0.4"/>
</radialGradient>
<radialGradient id="paint7_radial_226_1437" cx="0" cy="0" r="1" gradientUnits="userSpaceOnUse" gradientTransform="translate(120 211.667) rotate(-90) scale(91.6667 183.333)">
<stop stop-color="#F70A8D"/>
<stop offset="1" stop-color="#89029C"/>
</radialGradient>
<linearGradient id="paint8_linear_226_1437" x1="120" y1="120" x2="120" y2="131.25" gradientUnits="userSpaceOnUse">
<stop stop-color="#ECCDFF"/>
<stop offset="1" stop-color="white"/>
</linearGradient>
<radialGradient id="paint9_radial_226_1437" cx="0" cy="0" r="1" gradientUnits="userSpaceOnUse" gradientTransform="translate(73.3594 63.2812) rotate(110.225) scale(56.9488 74.4321)">
<stop stop-color="#9F5E0F"/>
<stop offset="0.889024" stop-color="#9F5E0F" stop-opacity="0"/>
</radialGradient>
<radialGradient id="paint10_radial_226_1437" cx="0" cy="0" r="1" gradientUnits="userSpaceOnUse" gradientTransform="translate(73.3594 63.2812) rotate(110.225) scale(56.9488 74.4321)">
<stop stop-color="#9F5E0F"/>
<stop offset="0.889024" stop-color="#9F5E0F" stop-opacity="0"/>
</radialGradient>
<linearGradient id="paint11_linear_226_1437" x1="79.3375" y1="110.492" x2="60" y2="70.4135" gradientUnits="userSpaceOnUse">
<stop offset="0.24955" stop-color="#482641"/>
<stop offset="0.406361" stop-color="#503A4A"/>
<stop offset="0.511203" stop-color="#482641"/>
</linearGradient>
<linearGradient id="paint12_linear_226_1437" x1="66.4469" y1="83.5389" x2="84.3766" y2="48.3827" gradientUnits="userSpaceOnUse">
<stop offset="0.24955" stop-color="#482641"/>
<stop offset="0.406361" stop-color="#503A4A"/>
<stop offset="0.511203" stop-color="#482641"/>
</linearGradient>
<radialGradient id="paint13_radial_226_1437" cx="0" cy="0" r="1" gradientUnits="userSpaceOnUse" gradientTransform="translate(201.211 115.781) rotate(-135.995) scale(100.198 130.959)">
<stop stop-color="#E9830A"/>
<stop offset="0.801655" stop-color="#F08B13" stop-opacity="0"/>
</radialGradient>
<radialGradient id="paint14_radial_226_1437" cx="0" cy="0" r="1" gradientUnits="userSpaceOnUse" gradientTransform="translate(201.211 115.781) rotate(-135.995) scale(100.198 130.959)">
<stop stop-color="#E9830A"/>
<stop offset="0.801655" stop-color="#F08B13" stop-opacity="0"/>
</radialGradient>
<linearGradient id="paint15_linear_226_1437" x1="160.547" y1="110.492" x2="179.884" y2="70.4135" gradientUnits="userSpaceOnUse">
<stop offset="0.24955" stop-color="#482641"/>
<stop offset="0.406361" stop-color="#503A4A"/>
<stop offset="0.511203" stop-color="#482641"/>
</linearGradient>
<linearGradient id="paint16_linear_226_1437" x1="173.437" y1="83.5389" x2="155.508" y2="48.3827" gradientUnits="userSpaceOnUse">
<stop offset="0.24955" stop-color="#482641"/>
<stop offset="0.406361" stop-color="#503A4A"/>
<stop offset="0.511203" stop-color="#482641"/>
</linearGradient>
<clipPath id="clip0_226_1437">
<rect width="240" height="240" fill="white"/>
</clipPath>
</defs>
</svg>
