<svg width="17" height="16" viewBox="0 0 17 16" fill="none" xmlns="http://www.w3.org/2000/svg">
<path d="M8.49969 0C6.37844 0 4.34219 0.843375 2.84344 2.34313C1.34344 3.84288 0.499695 5.87913 0.499695 8C0.499695 10.1209 1.34344 12.1571 2.84344 13.6569C4.34219 15.1566 6.37844 16 8.49969 16C10.6209 16 12.6572 15.1566 14.1559 13.6569C15.6559 12.1571 16.4997 10.1209 16.4997 8C16.4997 5.87913 15.6559 3.84288 14.1559 2.34313C12.6572 0.843375 10.6209 0 8.49969 0Z" fill="white"/>
<path d="M4.1211 7.91547C6.4536 6.89947 8.00858 6.2296 8.78608 5.90597C11.0086 4.98185 11.4698 4.82135 11.7711 4.81597C11.8373 4.81485 11.9848 4.83122 12.0811 4.9091C12.1611 4.97472 12.1836 5.06347 12.1948 5.12572C12.2048 5.18797 12.2186 5.32985 12.2073 5.4406C12.0873 6.7056 11.5661 9.77535 11.3011 11.1922C11.1898 11.7917 10.9686 11.9927 10.7548 12.0124C10.2898 12.0551 9.93731 11.7054 9.48731 11.4105C8.78356 10.9488 8.38609 10.6616 7.70234 10.2112C6.91234 9.69072 7.42482 9.4046 7.87482 8.9371C7.99232 8.81472 10.0398 6.95285 10.0786 6.78397C10.0836 6.76285 10.0886 6.6841 10.0411 6.6426C9.99483 6.60097 9.92604 6.61522 9.87604 6.62647C9.80479 6.64247 8.68104 7.38597 6.50104 8.85685C6.18229 9.0761 5.89355 9.18297 5.63355 9.17735C5.34855 9.17122 4.79859 9.01585 4.38984 8.8831C3.88984 8.72022 3.49107 8.6341 3.52607 8.35747C3.54357 8.21347 3.74235 8.0661 4.1211 7.91547Z" fill="#080808"/>
</svg>
